<svg xmlns="http://www.w3.org/2000/svg" viewBox="0 0 33.423 32.086">
  <defs>
    <style>
      .cls-1 {
        fill: #fff;
        stroke: rgba(112,112,112,0.36);
      }

      .cls-2 {
        fill: rgba(18,22,25,0.62);
      }

      .cls-3 {
        stroke: none;
      }

      .cls-4 {
        fill: none;
      }
    </style>
  </defs>
  <g id="Group_5" data-name="Group 5" transform="translate(-168.5 -2232)">
    <g id="Ellipse_4" data-name="Ellipse 4" class="cls-1" transform="translate(168.5 2232)">
      <ellipse class="cls-3" cx="16.711" cy="16.043" rx="16.711" ry="16.043"/>
      <ellipse class="cls-4" cx="16.711" cy="16.043" rx="16.211" ry="15.543"/>
    </g>
    <path id="user" class="cls-2" d="M271.6,143.488a3.531,3.531,0,0,1-.762,2.279,2.282,2.282,0,0,1-1.834.95H258.6a2.282,2.282,0,0,1-1.834-.95,3.531,3.531,0,0,1-.762-2.279,17.511,17.511,0,0,1,.1-1.956,10.506,10.506,0,0,1,.384-1.852,6.166,6.166,0,0,1,.713-1.6A3.411,3.411,0,0,1,258.346,137a3.165,3.165,0,0,1,1.639-.42,5.443,5.443,0,0,0,7.628,0,3.165,3.165,0,0,1,1.639.42,3.411,3.411,0,0,1,1.145,1.085,6.168,6.168,0,0,1,.713,1.6,10.512,10.512,0,0,1,.384,1.852A17.5,17.5,0,0,1,271.6,143.488Zm-3.12-10.808a4.68,4.68,0,1,1-1.371-3.308A4.508,4.508,0,0,1,268.478,132.679Z" transform="translate(-78.587 2110.685)"/>
  </g>
</svg>
